<svg width="64" height="64" viewBox="0 0 64 64" fill="none" xmlns="http://www.w3.org/2000/svg">
<path fill-rule="evenodd" clip-rule="evenodd" d="M7 1H57.5C60.8137 1 63.5 3.68629 63.5 7V57.5C63.5 60.8137 60.8137 63.5 57.5 63.5H7C3.68629 63.5 1 60.8137 1 57.5V7C1 3.68629 3.68629 1 7 1ZM60.5 10C60.5 6.68629 57.8137 4 54.5 4H10C6.68629 4 4 6.68629 4 10V55C4 58.3137 6.68629 61 10 61H35H54.5C57.8137 61 60.5 58.3137 60.5 55V10Z" fill="black"/>
<path d="M41 61H44V39.5H50L52 29.5H44.2323C43.253 24.8183 44.7023 23.6226 51.5 24.5V16.5C42.7898 14.032 37.6257 13.985 34.3434 18.5004C34.1067 18.8261 33.9229 19.1884 33.785 19.5667C31.8235 24.947 32.788 28.538 32.5 29H27.782V39.5H32V61H35V36.5H30.5V32H35C34.423 18.1179 38.1228 16.2572 48.5 18.5V22C43.5099 21.8596 40.3422 21.0552 41 32H48L47 36.5H41V61Z" fill="black"/>
<path d="M35 61H54.5C57.8137 61 60.5 58.3137 60.5 55V10C60.5 6.68629 57.8137 4 54.5 4H10C6.68629 4 4 6.68629 4 10V55C4 58.3137 6.68629 61 10 61H35ZM35 61V36.5H30.5V32H35C34.423 18.1179 38.1228 16.2572 48.5 18.5V22C43.5099 21.8596 40.3422 21.0552 41 32H48L47 36.5H41V61H44V39.5H50L52 29.5H44.2323C43.253 24.8183 44.7023 23.6226 51.5 24.5V16.5C42.7898 14.032 37.6257 13.985 34.3434 18.5004C34.1067 18.8261 33.9229 19.1884 33.785 19.5667C31.8235 24.947 32.788 28.538 32.5 29H27.782V39.5H32V61H35ZM57.5 1H7M57.5 1C60.8137 1 63.5 3.68629 63.5 7M57.5 1V1C60.8137 1 63.5 3.68629 63.5 7V7M7 1C3.68629 1 1 3.68629 1 7M7 1V1C3.68629 1 1 3.68629 1 7V7M1 7V57.5M1 57.5C1 60.8137 3.68629 63.5 7 63.5M1 57.5V57.5C1 60.8137 3.68629 63.5 7 63.5V63.5M7 63.5H57.5M57.5 63.5C60.8137 63.5 63.5 60.8137 63.5 57.5M57.5 63.5V63.5C60.8137 63.5 63.5 60.8137 63.5 57.5V57.5M63.5 57.5V7" stroke="black"/>
</svg>
