<svg width="76" height="76" viewBox="0 0 76 76" fill="none" xmlns="http://www.w3.org/2000/svg">
<path fill-rule="evenodd" clip-rule="evenodd" d="M6.56618 52.4615C6.56618 62.9549 15.0728 71.4615 25.5662 71.4615H49.0579C59.6573 71.4615 68.2071 62.7888 68.0559 52.1905L67.6762 25.5751C67.528 15.1885 59.0659 6.84615 48.6782 6.84615H25.5662C15.0728 6.84615 6.56618 15.3527 6.56618 25.8462V52.4615ZM9.78284 29.7229C9.78828 19.2334 18.2933 10.7328 28.7828 10.7328H45.3262C55.7633 10.7328 64.2464 19.1518 64.3256 29.5886L64.4686 48.4307C64.5487 58.9802 56.019 67.5749 45.4692 67.5749H28.7731C18.2758 67.5749 9.76761 59.0623 9.77306 48.565L9.78284 29.7229Z" fill="black"/>
<path fill-rule="evenodd" clip-rule="evenodd" d="M52.6592 39.988C52.6592 48.5159 45.746 55.4291 37.2181 55.4291V55.4291C28.6901 55.4291 21.7769 48.5159 21.7769 39.988V38.3197C21.7769 29.7918 28.6901 22.8785 37.2181 22.8785V22.8785C45.746 22.8785 52.6592 29.7918 52.6592 38.3197V39.988ZM49.4327 38.494C49.4327 31.748 43.964 26.2794 37.2181 26.2794V26.2794C30.4721 26.2794 25.0034 31.7481 25.0034 38.494V39.8137C25.0034 46.5597 30.4721 52.0283 37.2181 52.0283V52.0283C43.964 52.0283 49.4327 46.5596 49.4327 39.8137V38.494Z" fill="black"/>
<path d="M52.6592 19.9636C52.6592 20.7685 53.3118 21.4211 54.1167 21.4211H54.4283C55.2332 21.4211 55.8858 20.7685 55.8858 19.9636V19.9636C55.8858 19.1586 55.2332 18.5061 54.4283 18.5061H54.1167C53.3118 18.5061 52.6592 19.1586 52.6592 19.9636V19.9636Z" fill="black"/>
<path fill-rule="evenodd" clip-rule="evenodd" d="M6.56618 52.4615C6.56618 62.9549 15.0728 71.4615 25.5662 71.4615H49.0579C59.6573 71.4615 68.2071 62.7888 68.0559 52.1905L67.6762 25.5751C67.528 15.1885 59.0659 6.84615 48.6782 6.84615H25.5662C15.0728 6.84615 6.56618 15.3527 6.56618 25.8462V52.4615ZM9.78284 29.7229C9.78828 19.2334 18.2933 10.7328 28.7828 10.7328H45.3262C55.7633 10.7328 64.2464 19.1518 64.3256 29.5886L64.4686 48.4307C64.5487 58.9802 56.019 67.5749 45.4692 67.5749H28.7731C18.2758 67.5749 9.76761 59.0623 9.77306 48.565L9.78284 29.7229Z" stroke="black"/>
<path fill-rule="evenodd" clip-rule="evenodd" d="M52.6592 39.988C52.6592 48.5159 45.746 55.4291 37.2181 55.4291V55.4291C28.6901 55.4291 21.7769 48.5159 21.7769 39.988V38.3197C21.7769 29.7918 28.6901 22.8785 37.2181 22.8785V22.8785C45.746 22.8785 52.6592 29.7918 52.6592 38.3197V39.988ZM49.4327 38.494C49.4327 31.748 43.964 26.2794 37.2181 26.2794V26.2794C30.4721 26.2794 25.0034 31.7481 25.0034 38.494V39.8137C25.0034 46.5597 30.4721 52.0283 37.2181 52.0283V52.0283C43.964 52.0283 49.4327 46.5596 49.4327 39.8137V38.494Z" stroke="black"/>
<path d="M52.6592 19.9636C52.6592 20.7685 53.3118 21.4211 54.1167 21.4211H54.4283C55.2332 21.4211 55.8858 20.7685 55.8858 19.9636V19.9636C55.8858 19.1586 55.2332 18.5061 54.4283 18.5061H54.1167C53.3118 18.5061 52.6592 19.1586 52.6592 19.9636V19.9636Z" stroke="black"/>
</svg>
