<svg width="75" height="75" viewBox="0 0 75 75" fill="none" xmlns="http://www.w3.org/2000/svg">
<g clip-path="url(#clip0_6:195)">
<path fill-rule="evenodd" clip-rule="evenodd" d="M0.0104108 38.0739C-0.613894 7.34246 27.0067 1.11796 38.0104 0.0739486C49.0142 -0.970068 74.4789 8.90924 74.0104 38.0739C73.5419 67.2386 44.544 75.0338 38.0104 74.574C31.4768 74.1142 0.634715 68.8054 0.0104108 38.0739ZM22.0104 49.074L23.5104 44.574C20.5007 38.8228 20.3648 35.3445 23.5104 28.574C26.8621 24.1684 29.7312 22.5266 36.5104 21.074C45.4819 21.1467 48.2089 23.719 51.0104 30.574C52.6018 37.8613 51.2611 41.6046 47.5104 48.074C40.7887 54.0862 37.5322 53.4197 35.5104 46.074L37.5104 38.574C38.8741 32.245 38.3738 30.3966 36.0104 29.074C31.0448 28.6291 30.0925 30.1846 28.5104 33.074C27.77 36.7428 27.7674 38.8207 29.0104 42.574L24.0104 62.574V67.574C16.9778 64.1298 13.6502 61.3369 9.0104 54.574C3.55724 43.0621 2.80041 36.623 6.0104 25.074C10.457 15.3438 14.8905 10.8269 27.5104 5.07402C40.5339 2.0737 47.4248 3.65991 59.0104 12.074C66.643 19.9296 68.7115 24.9904 70.5104 34.574C71.0104 45.574 67.0104 52.574 67.0104 52.574C61.7819 60.0448 58.3556 63.7965 49.5104 68.074C42.3594 70.701 37.8424 71.2644 28.0104 69.074L30.5104 64.074L33.5104 53.574C40.0561 59.3197 45.2294 58.8208 53.0104 52.574C57.1286 47.744 58.4791 43.8237 59.0104 34.574C57.8908 26.4249 55.5579 22.858 48.5104 18.074C44.1019 16.4772 41.5265 15.8866 36.5104 16.074C28.4876 16.9871 24.719 18.5732 19.5104 23.574C15.7924 28.3086 14.2859 31.2648 14.5104 38.0739C15.2447 43.8424 16.8559 46.2561 22.0104 49.074Z" fill="black" stroke="black"/>
</g>
<defs>
<clipPath id="clip0_6:195">
<rect width="75" height="75" fill="white"/>
</clipPath>
</defs>
</svg>
